<?xml version="1.0" encoding="UTF-8" standalone="no"?>
<!DOCTYPE svg PUBLIC "-//W3C//DTD SVG 1.1//EN"
 "http://www.w3.org/Graphics/SVG/1.1/DTD/svg11.dtd">
<!-- Generated by graphviz version 2.50.0 (0)
 -->
<!-- Pages: 1 -->
<svg width="1117pt" height="223pt"
 viewBox="0.00 0.00 1116.99 222.99" xmlns="http://www.w3.org/2000/svg" xmlns:xlink="http://www.w3.org/1999/xlink">
<g id="graph0" class="graph" transform="scale(1 1) rotate(0) translate(4 218.99)">
<polygon fill="white" stroke="transparent" points="-4,4 -4,-218.99 1112.99,-218.99 1112.99,4 -4,4"/>
<!-- 8771593558690343418 -->
<g id="node1" class="node">
<title>8771593558690343418</title>
<ellipse fill="none" stroke="black" cx="71.49" cy="-71.49" rx="71.49" ry="71.49"/>
<text text-anchor="middle" x="71.49" y="-67.79" font-family="Helvetica,sans-Serif" font-size="14.00">valid_candidate</text>
</g>
<!-- &#45;2242805202725864797 -->
<g id="node2" class="node">
<title>&#45;2242805202725864797</title>
<polygon fill="none" stroke="black" points="98.49,-214.99 44.49,-214.99 44.49,-178.99 98.49,-178.99 98.49,-214.99"/>
</g>
<!-- 8771593558690343418&#45;&gt;&#45;2242805202725864797 -->
<g id="edge1" class="edge">
<title>8771593558690343418&#45;&gt;&#45;2242805202725864797</title>
<path fill="none" stroke="black" d="M71.49,-143.26C71.49,-152.19 71.49,-160.87 71.49,-168.53"/>
<polygon fill="black" stroke="black" points="67.99,-168.58 71.49,-178.58 74.99,-168.58 67.99,-168.58"/>
</g>
<!-- 7188392732026835732 -->
<g id="node3" class="node">
<title>7188392732026835732</title>
<ellipse fill="none" stroke="black" cx="232.49" cy="-71.49" rx="71.49" ry="71.49"/>
<text text-anchor="middle" x="232.49" y="-67.79" font-family="Helvetica,sans-Serif" font-size="14.00">valid_candidate</text>
</g>
<!-- &#45;2058565582275972882 -->
<g id="node4" class="node">
<title>&#45;2058565582275972882</title>
<polygon fill="none" stroke="black" points="259.49,-214.99 205.49,-214.99 205.49,-178.99 259.49,-178.99 259.49,-214.99"/>
</g>
<!-- 7188392732026835732&#45;&gt;&#45;2058565582275972882 -->
<g id="edge2" class="edge">
<title>7188392732026835732&#45;&gt;&#45;2058565582275972882</title>
<path fill="none" stroke="black" d="M232.49,-143.26C232.49,-152.19 232.49,-160.87 232.49,-168.53"/>
<polygon fill="black" stroke="black" points="228.99,-168.58 232.49,-178.58 235.99,-168.58 228.99,-168.58"/>
</g>
<!-- &#45;7726217814287403168 -->
<g id="node5" class="node">
<title>&#45;7726217814287403168</title>
<ellipse fill="none" stroke="black" cx="393.49" cy="-71.49" rx="71.49" ry="71.49"/>
<text text-anchor="middle" x="393.49" y="-67.79" font-family="Helvetica,sans-Serif" font-size="14.00">valid_candidate</text>
</g>
<!-- 6831917018140199199 -->
<g id="node6" class="node">
<title>6831917018140199199</title>
<polygon fill="none" stroke="black" points="420.49,-214.99 366.49,-214.99 366.49,-178.99 420.49,-178.99 420.49,-214.99"/>
</g>
<!-- &#45;7726217814287403168&#45;&gt;6831917018140199199 -->
<g id="edge3" class="edge">
<title>&#45;7726217814287403168&#45;&gt;6831917018140199199</title>
<path fill="none" stroke="black" d="M393.49,-143.26C393.49,-152.19 393.49,-160.87 393.49,-168.53"/>
<polygon fill="black" stroke="black" points="389.99,-168.58 393.49,-178.58 396.99,-168.58 389.99,-168.58"/>
</g>
<!-- &#45;7782200037640724970 -->
<g id="node7" class="node">
<title>&#45;7782200037640724970</title>
<ellipse fill="none" stroke="black" cx="554.49" cy="-71.49" rx="71.49" ry="71.49"/>
<text text-anchor="middle" x="554.49" y="-67.79" font-family="Helvetica,sans-Serif" font-size="14.00">valid_candidate</text>
</g>
<!-- &#45;8264905738348818352 -->
<g id="node8" class="node">
<title>&#45;8264905738348818352</title>
<polygon fill="none" stroke="black" points="581.49,-214.99 527.49,-214.99 527.49,-178.99 581.49,-178.99 581.49,-214.99"/>
</g>
<!-- &#45;7782200037640724970&#45;&gt;&#45;8264905738348818352 -->
<g id="edge4" class="edge">
<title>&#45;7782200037640724970&#45;&gt;&#45;8264905738348818352</title>
<path fill="none" stroke="black" d="M554.49,-143.26C554.49,-152.19 554.49,-160.87 554.49,-168.53"/>
<polygon fill="black" stroke="black" points="550.99,-168.58 554.49,-178.58 557.99,-168.58 550.99,-168.58"/>
</g>
<!-- 6163764213376737717 -->
<g id="node9" class="node">
<title>6163764213376737717</title>
<ellipse fill="none" stroke="black" cx="715.49" cy="-71.49" rx="71.49" ry="71.49"/>
<text text-anchor="middle" x="715.49" y="-67.79" font-family="Helvetica,sans-Serif" font-size="14.00">valid_candidate</text>
</g>
<!-- &#45;4656568458904860652 -->
<g id="node10" class="node">
<title>&#45;4656568458904860652</title>
<polygon fill="none" stroke="black" points="742.49,-214.99 688.49,-214.99 688.49,-178.99 742.49,-178.99 742.49,-214.99"/>
</g>
<!-- 6163764213376737717&#45;&gt;&#45;4656568458904860652 -->
<g id="edge5" class="edge">
<title>6163764213376737717&#45;&gt;&#45;4656568458904860652</title>
<path fill="none" stroke="black" d="M715.49,-143.26C715.49,-152.19 715.49,-160.87 715.49,-168.53"/>
<polygon fill="black" stroke="black" points="711.99,-168.58 715.49,-178.58 718.99,-168.58 711.99,-168.58"/>
</g>
<!-- &#45;3216834091701900282 -->
<g id="node11" class="node">
<title>&#45;3216834091701900282</title>
<ellipse fill="none" stroke="black" cx="876.49" cy="-71.49" rx="71.49" ry="71.49"/>
<text text-anchor="middle" x="876.49" y="-67.79" font-family="Helvetica,sans-Serif" font-size="14.00">valid_candidate</text>
</g>
<!-- &#45;7937630620898686622 -->
<g id="node12" class="node">
<title>&#45;7937630620898686622</title>
<polygon fill="none" stroke="black" points="903.49,-214.99 849.49,-214.99 849.49,-178.99 903.49,-178.99 903.49,-214.99"/>
</g>
<!-- &#45;3216834091701900282&#45;&gt;&#45;7937630620898686622 -->
<g id="edge6" class="edge">
<title>&#45;3216834091701900282&#45;&gt;&#45;7937630620898686622</title>
<path fill="none" stroke="black" d="M876.49,-143.26C876.49,-152.19 876.49,-160.87 876.49,-168.53"/>
<polygon fill="black" stroke="black" points="872.99,-168.58 876.49,-178.58 879.99,-168.58 872.99,-168.58"/>
</g>
<!-- 3750957658814013924 -->
<g id="node13" class="node">
<title>3750957658814013924</title>
<ellipse fill="none" stroke="black" cx="1037.49" cy="-71.49" rx="71.49" ry="71.49"/>
<text text-anchor="middle" x="1037.49" y="-67.79" font-family="Helvetica,sans-Serif" font-size="14.00">valid_candidate</text>
</g>
<!-- &#45;8020001939611881423 -->
<g id="node14" class="node">
<title>&#45;8020001939611881423</title>
<polygon fill="none" stroke="black" points="1064.49,-214.99 1010.49,-214.99 1010.49,-178.99 1064.49,-178.99 1064.49,-214.99"/>
</g>
<!-- 3750957658814013924&#45;&gt;&#45;8020001939611881423 -->
<g id="edge7" class="edge">
<title>3750957658814013924&#45;&gt;&#45;8020001939611881423</title>
<path fill="none" stroke="black" d="M1037.49,-143.26C1037.49,-152.19 1037.49,-160.87 1037.49,-168.53"/>
<polygon fill="black" stroke="black" points="1033.99,-168.58 1037.49,-178.58 1040.99,-168.58 1033.99,-168.58"/>
</g>
</g>
</svg>
